<svg width="60" height="60" viewBox="0 0 60 60" xmlns="http://www.w3.org/2000/svg">
  <defs>
    <linearGradient id="waveGradient" x1="0%" y1="0%" x2="100%" y2="0%">
      <stop offset="0%" style="stop-color:#0b5d6b;stop-opacity:1" />
      <stop offset="50%" style="stop-color:#3bd4c6;stop-opacity:1" />
      <stop offset="100%" style="stop-color:#0b5d6b;stop-opacity:1" />
    </linearGradient>
    <linearGradient id="sandGradient" x1="0%" y1="0%" x2="0%" y2="100%">
      <stop offset="0%" style="stop-color:#f4e4bc;stop-opacity:1" />
      <stop offset="100%" style="stop-color:#d4c4a8;stop-opacity:1" />
    </linearGradient>
    <filter id="glow">
      <feGaussianBlur stdDeviation="1.5" result="coloredBlur"/>
      <feMerge> 
        <feMergeNode in="coloredBlur"/>
        <feMergeNode in="SourceGraphic"/>
      </feMerge>
    </filter>
  </defs>
  
  <!-- Background circle -->
  <circle cx="30" cy="30" r="28" fill="url(#waveGradient)" opacity="0.1"/>
  
  <!-- Sand dunes -->
  <path d="M0,45 Q15,35 30,45 T60,45 L60,60 L0,60 Z" fill="url(#sandGradient)" opacity="0.4"/>
  
  <!-- Main wave -->
  <path d="M0,40 Q30,25 60,40 L60,60 L0,60 Z" fill="url(#waveGradient)"/>
  
  <!-- Palm tree -->
  <g transform="translate(8, 15)">
    <!-- Trunk -->
    <rect x="1.5" y="8" width="2" height="12" fill="#8B4513" opacity="0.8"/>
    <!-- Leaves -->
    <path d="M2.5,8 Q-2,5 0,2 Q2.5,-1 5,2 Q7,5 2.5,8" fill="#2d5016" opacity="0.9"/>
    <path d="M2.5,10 Q6,7 4,4 Q2.5,1 1,4 Q-1,7 2.5,10" fill="#2d5016" opacity="0.9"/>
    <path d="M2.5,6 Q-1,3 1,0 Q2.5,-3 4,0 Q6,3 2.5,6" fill="#2d5016" opacity="0.9"/>
  </g>
  
  <!-- Sun -->
  <circle cx="45" cy="15" r="5" fill="#FFD700" opacity="0.9" filter="url(#glow)"/>
  <g stroke="#FFD700" stroke-width="0.8" opacity="0.6">
    <line x1="45" y1="8" x2="45" y2="6"/>
    <line x1="52" y1="15" x2="54" y2="15"/>
    <line x1="45" y1="22" x2="45" y2="24"/>
    <line x1="38" y1="15" x2="36" y2="15"/>
  </g>
  
  <!-- Decorative elements -->
  <circle cx="20" cy="25" r="1" fill="#3bd4c6" opacity="0.7"/>
  <circle cx="25" cy="30" r="0.8" fill="#0b5d6b" opacity="0.5"/>
  <circle cx="18" cy="35" r="1.2" fill="#3bd4c6" opacity="0.6"/>
</svg>
